<mxfile host="app.diagrams.net" modified="2024-04-16T15:40:31.020Z" agent="Mozilla/5.0 (Windows NT 10.0; Win64; x64) AppleWebKit/537.36 (KHTML, like Gecko) Chrome/123.0.0.0 Safari/537.36" etag="xWBK90sE1IbYeAGSLRsa" version="24.2.5" type="github">
  <diagram id="R2lEEEUBdFMjLlhIrx00" name="Page-1">
    <mxGraphModel dx="1219" dy="1130" grid="1" gridSize="10" guides="1" tooltips="1" connect="1" arrows="1" fold="1" page="1" pageScale="1" pageWidth="850" pageHeight="1100" math="0" shadow="0" extFonts="Permanent Marker^https://fonts.googleapis.com/css?family=Permanent+Marker">
      <root>
        <mxCell id="0" />
        <mxCell id="1" parent="0" />
        <mxCell id="2jkBde8-LkIQ-ziUyT_U-1" value="" style="rounded=1;whiteSpace=wrap;html=1;" vertex="1" parent="1">
          <mxGeometry x="20" y="100" width="470" height="960" as="geometry" />
        </mxCell>
        <mxCell id="2jkBde8-LkIQ-ziUyT_U-2" value="" style="rounded=1;whiteSpace=wrap;html=1;" vertex="1" parent="1">
          <mxGeometry x="570" y="250" width="200" height="150" as="geometry" />
        </mxCell>
        <mxCell id="2jkBde8-LkIQ-ziUyT_U-5" value="" style="rounded=1;whiteSpace=wrap;html=1;" vertex="1" parent="1">
          <mxGeometry x="270" y="190" width="190" height="760" as="geometry" />
        </mxCell>
        <mxCell id="2jkBde8-LkIQ-ziUyT_U-81" style="edgeStyle=orthogonalEdgeStyle;rounded=0;orthogonalLoop=1;jettySize=auto;html=1;entryX=0;entryY=0.25;entryDx=0;entryDy=0;" edge="1" parent="1" source="2jkBde8-LkIQ-ziUyT_U-7" target="2jkBde8-LkIQ-ziUyT_U-2">
          <mxGeometry relative="1" as="geometry" />
        </mxCell>
        <mxCell id="2jkBde8-LkIQ-ziUyT_U-7" value="Chronicle Automation" style="rounded=1;whiteSpace=wrap;html=1;" vertex="1" parent="1">
          <mxGeometry x="285" y="250" width="160" height="60" as="geometry" />
        </mxCell>
        <mxCell id="2jkBde8-LkIQ-ziUyT_U-8" value="Yara-L Validation" style="rounded=1;whiteSpace=wrap;html=1;" vertex="1" parent="1">
          <mxGeometry x="285" y="330" width="160" height="60" as="geometry" />
        </mxCell>
        <mxCell id="2jkBde8-LkIQ-ziUyT_U-10" value="Metrics -Out Automation" style="rounded=1;whiteSpace=wrap;html=1;" vertex="1" parent="1">
          <mxGeometry x="285" y="780" width="160" height="60" as="geometry" />
        </mxCell>
        <mxCell id="2jkBde8-LkIQ-ziUyT_U-11" value="Yara-L" style="swimlane;fontStyle=0;childLayout=stackLayout;horizontal=1;startSize=30;horizontalStack=0;resizeParent=1;resizeParentMax=0;resizeLast=0;collapsible=1;marginBottom=0;whiteSpace=wrap;html=1;" vertex="1" parent="1">
          <mxGeometry x="50" y="210" width="140" height="120" as="geometry" />
        </mxCell>
        <mxCell id="2jkBde8-LkIQ-ziUyT_U-12" value="Rule 1" style="text;strokeColor=none;fillColor=none;align=left;verticalAlign=middle;spacingLeft=4;spacingRight=4;overflow=hidden;points=[[0,0.5],[1,0.5]];portConstraint=eastwest;rotatable=0;whiteSpace=wrap;html=1;" vertex="1" parent="2jkBde8-LkIQ-ziUyT_U-11">
          <mxGeometry y="30" width="140" height="30" as="geometry" />
        </mxCell>
        <mxCell id="2jkBde8-LkIQ-ziUyT_U-13" value="Rule 2" style="text;strokeColor=none;fillColor=none;align=left;verticalAlign=middle;spacingLeft=4;spacingRight=4;overflow=hidden;points=[[0,0.5],[1,0.5]];portConstraint=eastwest;rotatable=0;whiteSpace=wrap;html=1;" vertex="1" parent="2jkBde8-LkIQ-ziUyT_U-11">
          <mxGeometry y="60" width="140" height="30" as="geometry" />
        </mxCell>
        <mxCell id="2jkBde8-LkIQ-ziUyT_U-14" value="Rule 3" style="text;strokeColor=none;fillColor=none;align=left;verticalAlign=middle;spacingLeft=4;spacingRight=4;overflow=hidden;points=[[0,0.5],[1,0.5]];portConstraint=eastwest;rotatable=0;whiteSpace=wrap;html=1;" vertex="1" parent="2jkBde8-LkIQ-ziUyT_U-11">
          <mxGeometry y="90" width="140" height="30" as="geometry" />
        </mxCell>
        <mxCell id="2jkBde8-LkIQ-ziUyT_U-15" value="SPL" style="swimlane;fontStyle=0;childLayout=stackLayout;horizontal=1;startSize=30;horizontalStack=0;resizeParent=1;resizeParentMax=0;resizeLast=0;collapsible=1;marginBottom=0;whiteSpace=wrap;html=1;" vertex="1" parent="1">
          <mxGeometry x="50" y="370" width="140" height="120" as="geometry" />
        </mxCell>
        <mxCell id="2jkBde8-LkIQ-ziUyT_U-16" value="Rule 1" style="text;strokeColor=none;fillColor=none;align=left;verticalAlign=middle;spacingLeft=4;spacingRight=4;overflow=hidden;points=[[0,0.5],[1,0.5]];portConstraint=eastwest;rotatable=0;whiteSpace=wrap;html=1;" vertex="1" parent="2jkBde8-LkIQ-ziUyT_U-15">
          <mxGeometry y="30" width="140" height="30" as="geometry" />
        </mxCell>
        <mxCell id="2jkBde8-LkIQ-ziUyT_U-17" value="Rule 2" style="text;strokeColor=none;fillColor=none;align=left;verticalAlign=middle;spacingLeft=4;spacingRight=4;overflow=hidden;points=[[0,0.5],[1,0.5]];portConstraint=eastwest;rotatable=0;whiteSpace=wrap;html=1;" vertex="1" parent="2jkBde8-LkIQ-ziUyT_U-15">
          <mxGeometry y="60" width="140" height="30" as="geometry" />
        </mxCell>
        <mxCell id="2jkBde8-LkIQ-ziUyT_U-18" value="Rule 3" style="text;strokeColor=none;fillColor=none;align=left;verticalAlign=middle;spacingLeft=4;spacingRight=4;overflow=hidden;points=[[0,0.5],[1,0.5]];portConstraint=eastwest;rotatable=0;whiteSpace=wrap;html=1;" vertex="1" parent="2jkBde8-LkIQ-ziUyT_U-15">
          <mxGeometry y="90" width="140" height="30" as="geometry" />
        </mxCell>
        <mxCell id="2jkBde8-LkIQ-ziUyT_U-19" value="Sigma" style="swimlane;fontStyle=0;childLayout=stackLayout;horizontal=1;startSize=30;horizontalStack=0;resizeParent=1;resizeParentMax=0;resizeLast=0;collapsible=1;marginBottom=0;whiteSpace=wrap;html=1;" vertex="1" parent="1">
          <mxGeometry x="45" y="900" width="140" height="120" as="geometry" />
        </mxCell>
        <mxCell id="2jkBde8-LkIQ-ziUyT_U-20" value="Mapped Rule" style="text;strokeColor=none;fillColor=none;align=left;verticalAlign=middle;spacingLeft=4;spacingRight=4;overflow=hidden;points=[[0,0.5],[1,0.5]];portConstraint=eastwest;rotatable=0;whiteSpace=wrap;html=1;" vertex="1" parent="2jkBde8-LkIQ-ziUyT_U-19">
          <mxGeometry y="30" width="140" height="30" as="geometry" />
        </mxCell>
        <mxCell id="2jkBde8-LkIQ-ziUyT_U-21" value="Mapped Rule 2" style="text;strokeColor=none;fillColor=none;align=left;verticalAlign=middle;spacingLeft=4;spacingRight=4;overflow=hidden;points=[[0,0.5],[1,0.5]];portConstraint=eastwest;rotatable=0;whiteSpace=wrap;html=1;" vertex="1" parent="2jkBde8-LkIQ-ziUyT_U-19">
          <mxGeometry y="60" width="140" height="30" as="geometry" />
        </mxCell>
        <mxCell id="2jkBde8-LkIQ-ziUyT_U-22" value="Mapped Rule 3" style="text;strokeColor=none;fillColor=none;align=left;verticalAlign=middle;spacingLeft=4;spacingRight=4;overflow=hidden;points=[[0,0.5],[1,0.5]];portConstraint=eastwest;rotatable=0;whiteSpace=wrap;html=1;" vertex="1" parent="2jkBde8-LkIQ-ziUyT_U-19">
          <mxGeometry y="90" width="140" height="30" as="geometry" />
        </mxCell>
        <mxCell id="2jkBde8-LkIQ-ziUyT_U-69" style="edgeStyle=orthogonalEdgeStyle;rounded=0;orthogonalLoop=1;jettySize=auto;html=1;entryX=0;entryY=0.25;entryDx=0;entryDy=0;" edge="1" parent="1" source="2jkBde8-LkIQ-ziUyT_U-23" target="2jkBde8-LkIQ-ziUyT_U-35">
          <mxGeometry relative="1" as="geometry" />
        </mxCell>
        <mxCell id="2jkBde8-LkIQ-ziUyT_U-23" value="Python/Detection Engine" style="swimlane;fontStyle=0;childLayout=stackLayout;horizontal=1;startSize=30;horizontalStack=0;resizeParent=1;resizeParentMax=0;resizeLast=0;collapsible=1;marginBottom=0;whiteSpace=wrap;html=1;" vertex="1" parent="1">
          <mxGeometry x="50" y="550" width="140" height="120" as="geometry" />
        </mxCell>
        <mxCell id="2jkBde8-LkIQ-ziUyT_U-24" value="Rule 1" style="text;strokeColor=none;fillColor=none;align=left;verticalAlign=middle;spacingLeft=4;spacingRight=4;overflow=hidden;points=[[0,0.5],[1,0.5]];portConstraint=eastwest;rotatable=0;whiteSpace=wrap;html=1;" vertex="1" parent="2jkBde8-LkIQ-ziUyT_U-23">
          <mxGeometry y="30" width="140" height="30" as="geometry" />
        </mxCell>
        <mxCell id="2jkBde8-LkIQ-ziUyT_U-25" value="Rule 2" style="text;strokeColor=none;fillColor=none;align=left;verticalAlign=middle;spacingLeft=4;spacingRight=4;overflow=hidden;points=[[0,0.5],[1,0.5]];portConstraint=eastwest;rotatable=0;whiteSpace=wrap;html=1;" vertex="1" parent="2jkBde8-LkIQ-ziUyT_U-23">
          <mxGeometry y="60" width="140" height="30" as="geometry" />
        </mxCell>
        <mxCell id="2jkBde8-LkIQ-ziUyT_U-26" value="Rule 3" style="text;strokeColor=none;fillColor=none;align=left;verticalAlign=middle;spacingLeft=4;spacingRight=4;overflow=hidden;points=[[0,0.5],[1,0.5]];portConstraint=eastwest;rotatable=0;whiteSpace=wrap;html=1;" vertex="1" parent="2jkBde8-LkIQ-ziUyT_U-23">
          <mxGeometry y="90" width="140" height="30" as="geometry" />
        </mxCell>
        <mxCell id="2jkBde8-LkIQ-ziUyT_U-28" value="Metrics" style="swimlane;fontStyle=0;childLayout=stackLayout;horizontal=1;startSize=30;horizontalStack=0;resizeParent=1;resizeParentMax=0;resizeLast=0;collapsible=1;marginBottom=0;whiteSpace=wrap;html=1;" vertex="1" parent="1">
          <mxGeometry x="40" y="740" width="150" height="130" as="geometry" />
        </mxCell>
        <mxCell id="2jkBde8-LkIQ-ziUyT_U-29" value="JSON Dashboards" style="text;strokeColor=none;fillColor=none;align=left;verticalAlign=middle;spacingLeft=4;spacingRight=4;overflow=hidden;points=[[0,0.5],[1,0.5]];portConstraint=eastwest;rotatable=0;whiteSpace=wrap;html=1;" vertex="1" parent="2jkBde8-LkIQ-ziUyT_U-28">
          <mxGeometry y="30" width="150" height="30" as="geometry" />
        </mxCell>
        <mxCell id="2jkBde8-LkIQ-ziUyT_U-30" value="Att&amp;amp;ck Mapping" style="text;strokeColor=none;fillColor=none;align=left;verticalAlign=middle;spacingLeft=4;spacingRight=4;overflow=hidden;points=[[0,0.5],[1,0.5]];portConstraint=eastwest;rotatable=0;whiteSpace=wrap;html=1;" vertex="1" parent="2jkBde8-LkIQ-ziUyT_U-28">
          <mxGeometry y="60" width="150" height="30" as="geometry" />
        </mxCell>
        <mxCell id="2jkBde8-LkIQ-ziUyT_U-31" value="API Graphing/Juypter/Polyglot&lt;div&gt;&lt;br&gt;&lt;/div&gt;" style="text;strokeColor=none;fillColor=none;align=left;verticalAlign=middle;spacingLeft=4;spacingRight=4;overflow=hidden;points=[[0,0.5],[1,0.5]];portConstraint=eastwest;rotatable=0;whiteSpace=wrap;html=1;" vertex="1" parent="2jkBde8-LkIQ-ziUyT_U-28">
          <mxGeometry y="90" width="150" height="40" as="geometry" />
        </mxCell>
        <mxCell id="2jkBde8-LkIQ-ziUyT_U-32" style="edgeStyle=orthogonalEdgeStyle;rounded=0;orthogonalLoop=1;jettySize=auto;html=1;entryX=0.947;entryY=0.023;entryDx=0;entryDy=0;entryPerimeter=0;" edge="1" parent="1" source="2jkBde8-LkIQ-ziUyT_U-10" target="2jkBde8-LkIQ-ziUyT_U-28">
          <mxGeometry relative="1" as="geometry" />
        </mxCell>
        <mxCell id="2jkBde8-LkIQ-ziUyT_U-82" style="edgeStyle=orthogonalEdgeStyle;rounded=0;orthogonalLoop=1;jettySize=auto;html=1;entryX=0;entryY=0.25;entryDx=0;entryDy=0;" edge="1" parent="1" source="2jkBde8-LkIQ-ziUyT_U-33" target="2jkBde8-LkIQ-ziUyT_U-39">
          <mxGeometry relative="1" as="geometry" />
        </mxCell>
        <mxCell id="2jkBde8-LkIQ-ziUyT_U-33" value="Splunk Automation" style="rounded=1;whiteSpace=wrap;html=1;" vertex="1" parent="1">
          <mxGeometry x="285" y="420" width="160" height="60" as="geometry" />
        </mxCell>
        <mxCell id="2jkBde8-LkIQ-ziUyT_U-34" value="SPL Validation" style="rounded=1;whiteSpace=wrap;html=1;" vertex="1" parent="1">
          <mxGeometry x="285" y="500" width="160" height="60" as="geometry" />
        </mxCell>
        <mxCell id="2jkBde8-LkIQ-ziUyT_U-35" value="Detection Engine Automation" style="rounded=1;whiteSpace=wrap;html=1;" vertex="1" parent="1">
          <mxGeometry x="285" y="620" width="160" height="60" as="geometry" />
        </mxCell>
        <mxCell id="2jkBde8-LkIQ-ziUyT_U-36" value="Rule Validation&amp;nbsp;" style="rounded=1;whiteSpace=wrap;html=1;" vertex="1" parent="1">
          <mxGeometry x="285" y="700" width="160" height="60" as="geometry" />
        </mxCell>
        <mxCell id="2jkBde8-LkIQ-ziUyT_U-38" value="" style="rounded=1;whiteSpace=wrap;html=1;" vertex="1" parent="1">
          <mxGeometry x="570" y="580" width="200" height="150" as="geometry" />
        </mxCell>
        <mxCell id="2jkBde8-LkIQ-ziUyT_U-39" value="" style="rounded=1;whiteSpace=wrap;html=1;" vertex="1" parent="1">
          <mxGeometry x="570" y="415" width="200" height="150" as="geometry" />
        </mxCell>
        <mxCell id="2jkBde8-LkIQ-ziUyT_U-40" value="" style="rounded=1;whiteSpace=wrap;html=1;" vertex="1" parent="1">
          <mxGeometry x="570" y="750" width="200" height="150" as="geometry" />
        </mxCell>
        <mxCell id="2jkBde8-LkIQ-ziUyT_U-41" value="GitHub" style="rounded=0;whiteSpace=wrap;html=1;" vertex="1" parent="1">
          <mxGeometry x="180" y="120" width="120" height="60" as="geometry" />
        </mxCell>
        <mxCell id="2jkBde8-LkIQ-ziUyT_U-42" value="Actions" style="rounded=0;whiteSpace=wrap;html=1;" vertex="1" parent="1">
          <mxGeometry x="300" y="200" width="120" height="30" as="geometry" />
        </mxCell>
        <mxCell id="2jkBde8-LkIQ-ziUyT_U-43" value="Chronicle Alerts" style="swimlane;fontStyle=0;childLayout=stackLayout;horizontal=1;startSize=30;horizontalStack=0;resizeParent=1;resizeParentMax=0;resizeLast=0;collapsible=1;marginBottom=0;whiteSpace=wrap;html=1;" vertex="1" parent="1">
          <mxGeometry x="600" y="265" width="140" height="120" as="geometry" />
        </mxCell>
        <mxCell id="2jkBde8-LkIQ-ziUyT_U-44" value="Rule 1&amp;nbsp; &amp;nbsp;" style="text;strokeColor=none;fillColor=none;align=left;verticalAlign=middle;spacingLeft=4;spacingRight=4;overflow=hidden;points=[[0,0.5],[1,0.5]];portConstraint=eastwest;rotatable=0;whiteSpace=wrap;html=1;" vertex="1" parent="2jkBde8-LkIQ-ziUyT_U-43">
          <mxGeometry y="30" width="140" height="30" as="geometry" />
        </mxCell>
        <mxCell id="2jkBde8-LkIQ-ziUyT_U-45" value="Rule 2" style="text;strokeColor=none;fillColor=none;align=left;verticalAlign=middle;spacingLeft=4;spacingRight=4;overflow=hidden;points=[[0,0.5],[1,0.5]];portConstraint=eastwest;rotatable=0;whiteSpace=wrap;html=1;" vertex="1" parent="2jkBde8-LkIQ-ziUyT_U-43">
          <mxGeometry y="60" width="140" height="30" as="geometry" />
        </mxCell>
        <mxCell id="2jkBde8-LkIQ-ziUyT_U-46" value="Rule 3" style="text;strokeColor=none;fillColor=none;align=left;verticalAlign=middle;spacingLeft=4;spacingRight=4;overflow=hidden;points=[[0,0.5],[1,0.5]];portConstraint=eastwest;rotatable=0;whiteSpace=wrap;html=1;" vertex="1" parent="2jkBde8-LkIQ-ziUyT_U-43">
          <mxGeometry y="90" width="140" height="30" as="geometry" />
        </mxCell>
        <mxCell id="2jkBde8-LkIQ-ziUyT_U-47" value="Splunk Alerts" style="swimlane;fontStyle=0;childLayout=stackLayout;horizontal=1;startSize=30;horizontalStack=0;resizeParent=1;resizeParentMax=0;resizeLast=0;collapsible=1;marginBottom=0;whiteSpace=wrap;html=1;" vertex="1" parent="1">
          <mxGeometry x="600" y="430" width="140" height="120" as="geometry" />
        </mxCell>
        <mxCell id="2jkBde8-LkIQ-ziUyT_U-48" value="Rule 1&amp;nbsp; &amp;nbsp;" style="text;strokeColor=none;fillColor=none;align=left;verticalAlign=middle;spacingLeft=4;spacingRight=4;overflow=hidden;points=[[0,0.5],[1,0.5]];portConstraint=eastwest;rotatable=0;whiteSpace=wrap;html=1;" vertex="1" parent="2jkBde8-LkIQ-ziUyT_U-47">
          <mxGeometry y="30" width="140" height="30" as="geometry" />
        </mxCell>
        <mxCell id="2jkBde8-LkIQ-ziUyT_U-49" value="Rule 2" style="text;strokeColor=none;fillColor=none;align=left;verticalAlign=middle;spacingLeft=4;spacingRight=4;overflow=hidden;points=[[0,0.5],[1,0.5]];portConstraint=eastwest;rotatable=0;whiteSpace=wrap;html=1;" vertex="1" parent="2jkBde8-LkIQ-ziUyT_U-47">
          <mxGeometry y="60" width="140" height="30" as="geometry" />
        </mxCell>
        <mxCell id="2jkBde8-LkIQ-ziUyT_U-50" value="Rule 3" style="text;strokeColor=none;fillColor=none;align=left;verticalAlign=middle;spacingLeft=4;spacingRight=4;overflow=hidden;points=[[0,0.5],[1,0.5]];portConstraint=eastwest;rotatable=0;whiteSpace=wrap;html=1;" vertex="1" parent="2jkBde8-LkIQ-ziUyT_U-47">
          <mxGeometry y="90" width="140" height="30" as="geometry" />
        </mxCell>
        <mxCell id="2jkBde8-LkIQ-ziUyT_U-51" value="Detection Engine Alerts" style="swimlane;fontStyle=0;childLayout=stackLayout;horizontal=1;startSize=30;horizontalStack=0;resizeParent=1;resizeParentMax=0;resizeLast=0;collapsible=1;marginBottom=0;whiteSpace=wrap;html=1;" vertex="1" parent="1">
          <mxGeometry x="580" y="590" width="180" height="120" as="geometry" />
        </mxCell>
        <mxCell id="2jkBde8-LkIQ-ziUyT_U-52" value="Rule 1&amp;nbsp; &amp;nbsp;" style="text;strokeColor=none;fillColor=none;align=left;verticalAlign=middle;spacingLeft=4;spacingRight=4;overflow=hidden;points=[[0,0.5],[1,0.5]];portConstraint=eastwest;rotatable=0;whiteSpace=wrap;html=1;" vertex="1" parent="2jkBde8-LkIQ-ziUyT_U-51">
          <mxGeometry y="30" width="180" height="30" as="geometry" />
        </mxCell>
        <mxCell id="2jkBde8-LkIQ-ziUyT_U-53" value="Rule 2" style="text;strokeColor=none;fillColor=none;align=left;verticalAlign=middle;spacingLeft=4;spacingRight=4;overflow=hidden;points=[[0,0.5],[1,0.5]];portConstraint=eastwest;rotatable=0;whiteSpace=wrap;html=1;" vertex="1" parent="2jkBde8-LkIQ-ziUyT_U-51">
          <mxGeometry y="60" width="180" height="30" as="geometry" />
        </mxCell>
        <mxCell id="2jkBde8-LkIQ-ziUyT_U-54" value="Rule 3" style="text;strokeColor=none;fillColor=none;align=left;verticalAlign=middle;spacingLeft=4;spacingRight=4;overflow=hidden;points=[[0,0.5],[1,0.5]];portConstraint=eastwest;rotatable=0;whiteSpace=wrap;html=1;" vertex="1" parent="2jkBde8-LkIQ-ziUyT_U-51">
          <mxGeometry y="90" width="180" height="30" as="geometry" />
        </mxCell>
        <mxCell id="2jkBde8-LkIQ-ziUyT_U-55" value="Sigma Alerts Coverage Map" style="swimlane;fontStyle=0;childLayout=stackLayout;horizontal=1;startSize=30;horizontalStack=0;resizeParent=1;resizeParentMax=0;resizeLast=0;collapsible=1;marginBottom=0;whiteSpace=wrap;html=1;" vertex="1" parent="1">
          <mxGeometry x="580" y="765" width="180" height="120" as="geometry" />
        </mxCell>
        <mxCell id="2jkBde8-LkIQ-ziUyT_U-56" value="Rule 1&amp;nbsp; &amp;nbsp;" style="text;strokeColor=none;fillColor=none;align=left;verticalAlign=middle;spacingLeft=4;spacingRight=4;overflow=hidden;points=[[0,0.5],[1,0.5]];portConstraint=eastwest;rotatable=0;whiteSpace=wrap;html=1;" vertex="1" parent="2jkBde8-LkIQ-ziUyT_U-55">
          <mxGeometry y="30" width="180" height="30" as="geometry" />
        </mxCell>
        <mxCell id="2jkBde8-LkIQ-ziUyT_U-57" value="Rule 2" style="text;strokeColor=none;fillColor=none;align=left;verticalAlign=middle;spacingLeft=4;spacingRight=4;overflow=hidden;points=[[0,0.5],[1,0.5]];portConstraint=eastwest;rotatable=0;whiteSpace=wrap;html=1;" vertex="1" parent="2jkBde8-LkIQ-ziUyT_U-55">
          <mxGeometry y="60" width="180" height="30" as="geometry" />
        </mxCell>
        <mxCell id="2jkBde8-LkIQ-ziUyT_U-58" value="Rule 3" style="text;strokeColor=none;fillColor=none;align=left;verticalAlign=middle;spacingLeft=4;spacingRight=4;overflow=hidden;points=[[0,0.5],[1,0.5]];portConstraint=eastwest;rotatable=0;whiteSpace=wrap;html=1;" vertex="1" parent="2jkBde8-LkIQ-ziUyT_U-55">
          <mxGeometry y="90" width="180" height="30" as="geometry" />
        </mxCell>
        <mxCell id="2jkBde8-LkIQ-ziUyT_U-65" style="edgeStyle=orthogonalEdgeStyle;rounded=0;orthogonalLoop=1;jettySize=auto;html=1;exitX=0;exitY=0.25;exitDx=0;exitDy=0;entryX=1;entryY=0.067;entryDx=0;entryDy=0;entryPerimeter=0;" edge="1" parent="1" source="2jkBde8-LkIQ-ziUyT_U-35" target="2jkBde8-LkIQ-ziUyT_U-23">
          <mxGeometry relative="1" as="geometry" />
        </mxCell>
        <mxCell id="2jkBde8-LkIQ-ziUyT_U-68" style="edgeStyle=orthogonalEdgeStyle;rounded=0;orthogonalLoop=1;jettySize=auto;html=1;entryX=1.007;entryY=0.075;entryDx=0;entryDy=0;entryPerimeter=0;" edge="1" parent="1" source="2jkBde8-LkIQ-ziUyT_U-36" target="2jkBde8-LkIQ-ziUyT_U-23">
          <mxGeometry relative="1" as="geometry" />
        </mxCell>
        <mxCell id="2jkBde8-LkIQ-ziUyT_U-73" style="edgeStyle=orthogonalEdgeStyle;rounded=0;orthogonalLoop=1;jettySize=auto;html=1;entryX=1.036;entryY=0.108;entryDx=0;entryDy=0;entryPerimeter=0;" edge="1" parent="1" source="2jkBde8-LkIQ-ziUyT_U-33" target="2jkBde8-LkIQ-ziUyT_U-15">
          <mxGeometry relative="1" as="geometry" />
        </mxCell>
        <mxCell id="2jkBde8-LkIQ-ziUyT_U-75" style="edgeStyle=orthogonalEdgeStyle;rounded=0;orthogonalLoop=1;jettySize=auto;html=1;" edge="1" parent="1" source="2jkBde8-LkIQ-ziUyT_U-17" target="2jkBde8-LkIQ-ziUyT_U-33">
          <mxGeometry relative="1" as="geometry" />
        </mxCell>
        <mxCell id="2jkBde8-LkIQ-ziUyT_U-76" style="edgeStyle=orthogonalEdgeStyle;rounded=0;orthogonalLoop=1;jettySize=auto;html=1;entryX=0.993;entryY=0.1;entryDx=0;entryDy=0;entryPerimeter=0;" edge="1" parent="1" source="2jkBde8-LkIQ-ziUyT_U-34" target="2jkBde8-LkIQ-ziUyT_U-15">
          <mxGeometry relative="1" as="geometry" />
        </mxCell>
        <mxCell id="2jkBde8-LkIQ-ziUyT_U-77" style="edgeStyle=orthogonalEdgeStyle;rounded=0;orthogonalLoop=1;jettySize=auto;html=1;entryX=1.007;entryY=0.058;entryDx=0;entryDy=0;entryPerimeter=0;" edge="1" parent="1" source="2jkBde8-LkIQ-ziUyT_U-7" target="2jkBde8-LkIQ-ziUyT_U-11">
          <mxGeometry relative="1" as="geometry" />
        </mxCell>
        <mxCell id="2jkBde8-LkIQ-ziUyT_U-78" style="edgeStyle=orthogonalEdgeStyle;rounded=0;orthogonalLoop=1;jettySize=auto;html=1;" edge="1" parent="1" source="2jkBde8-LkIQ-ziUyT_U-12" target="2jkBde8-LkIQ-ziUyT_U-7">
          <mxGeometry relative="1" as="geometry" />
        </mxCell>
        <mxCell id="2jkBde8-LkIQ-ziUyT_U-79" style="edgeStyle=orthogonalEdgeStyle;rounded=0;orthogonalLoop=1;jettySize=auto;html=1;entryX=1;entryY=0.083;entryDx=0;entryDy=0;entryPerimeter=0;" edge="1" parent="1" source="2jkBde8-LkIQ-ziUyT_U-8" target="2jkBde8-LkIQ-ziUyT_U-11">
          <mxGeometry relative="1" as="geometry" />
        </mxCell>
        <mxCell id="2jkBde8-LkIQ-ziUyT_U-87" style="edgeStyle=orthogonalEdgeStyle;rounded=0;orthogonalLoop=1;jettySize=auto;html=1;entryX=0;entryY=0.25;entryDx=0;entryDy=0;" edge="1" parent="1" source="2jkBde8-LkIQ-ziUyT_U-85" target="2jkBde8-LkIQ-ziUyT_U-40">
          <mxGeometry relative="1" as="geometry" />
        </mxCell>
        <mxCell id="2jkBde8-LkIQ-ziUyT_U-85" value="Sigma Automation" style="rounded=1;whiteSpace=wrap;html=1;" vertex="1" parent="1">
          <mxGeometry x="290" y="870" width="150" height="60" as="geometry" />
        </mxCell>
        <mxCell id="2jkBde8-LkIQ-ziUyT_U-86" style="edgeStyle=orthogonalEdgeStyle;rounded=0;orthogonalLoop=1;jettySize=auto;html=1;entryX=0.993;entryY=0.092;entryDx=0;entryDy=0;entryPerimeter=0;" edge="1" parent="1" source="2jkBde8-LkIQ-ziUyT_U-85" target="2jkBde8-LkIQ-ziUyT_U-19">
          <mxGeometry relative="1" as="geometry" />
        </mxCell>
        <mxCell id="2jkBde8-LkIQ-ziUyT_U-88" style="edgeStyle=orthogonalEdgeStyle;rounded=0;orthogonalLoop=1;jettySize=auto;html=1;entryX=-0.02;entryY=0.153;entryDx=0;entryDy=0;entryPerimeter=0;" edge="1" parent="1" source="2jkBde8-LkIQ-ziUyT_U-35" target="2jkBde8-LkIQ-ziUyT_U-38">
          <mxGeometry relative="1" as="geometry" />
        </mxCell>
      </root>
    </mxGraphModel>
  </diagram>
</mxfile>
